<svg width="150" height="32" viewBox="0 0 150 32" fill="none" xmlns="http://www.w3.org/2000/svg">
<g id="graygrids-2.svg" clip-path="url(#clip0_1_234)">
<g id="Clip path group">
<mask id="mask0_1_234" style="mask-type:luminance" maskUnits="userSpaceOnUse" x="0" y="0" width="150" height="32">
<g id="a">
<path id="Vector" d="M149.263 0.686035H0.731474V31.7741H149.263V0.686035Z" fill="white"/>
</g>
</mask>
<g mask="url(#mask0_1_234)">
<g id="Group">
<path id="Vector_2" d="M31.8196 16.2301C31.8196 7.64534 24.8603 0.686035 16.2755 0.686035C7.69078 0.686035 0.731474 7.64534 0.731474 16.2301C0.731474 24.8148 7.69078 31.7741 16.2755 31.7741C24.8603 31.7741 31.8196 24.8148 31.8196 16.2301Z" fill="url(#paint0_linear_1_234)"/>
<path id="Vector_3" d="M31.8196 16.2301C31.8196 7.64534 24.8603 0.686035 16.2755 0.686035C7.69078 0.686035 0.731474 7.64534 0.731474 16.2301C0.731474 24.8148 7.69078 31.7741 16.2755 31.7741C24.8603 31.7741 31.8196 24.8148 31.8196 16.2301Z" fill="url(#paint1_linear_1_234)" fill-opacity="0.56"/>
<path id="Vector_4" d="M16.5229 6.51514C18.9844 6.51514 21.3081 7.42456 23.1062 9.08255C23.2059 9.17449 23.2069 9.33063 23.1111 9.42646L19.305 13.2326C19.2128 13.3248 19.0647 13.3271 18.9639 13.2444C18.2765 12.6816 17.4235 12.376 16.5245 12.376C14.3963 12.3745 12.6658 14.1051 12.6658 16.2302H6.80336C6.80336 10.8732 11.1644 6.51514 16.5229 6.51514Z" fill="white"/>
<path id="Vector_5" d="M12.6658 16.23C12.6658 18.2245 14.1898 19.8709 16.1352 20.0663C16.2649 20.0793 16.3681 20.1856 16.3681 20.316V25.6983C16.3681 25.8339 16.2563 25.9435 16.1208 25.938C10.9468 25.726 6.80336 21.4523 6.80336 16.23H12.6658Z" fill="white"/>
<path id="Vector_6" opacity="0.56" d="M22.2987 17.001H20.0066C19.8724 17.001 19.7636 17.1098 19.7636 17.2439V19.5345C19.7636 19.6687 19.8724 19.7774 20.0066 19.7774H22.2987C22.4328 19.7774 22.5415 19.6687 22.5415 19.5345V17.2439C22.5415 17.1098 22.4328 17.001 22.2987 17.001Z" fill="white"/>
<path id="Vector_7" opacity="0.4" d="M25.383 17.001H23.0908C22.9567 17.001 22.848 17.1098 22.848 17.2439V19.5345C22.848 19.6687 22.9567 19.7774 23.0908 19.7774H25.383C25.517 19.7774 25.6258 19.6687 25.6258 19.5345V17.2439C25.6258 17.1098 25.517 17.001 25.383 17.001Z" fill="white"/>
<path id="Vector_8" opacity="0.72" d="M22.2987 20.0859H20.0066C19.8724 20.0859 19.7636 20.1947 19.7636 20.3288V22.6195C19.7636 22.7535 19.8724 22.8623 20.0066 22.8623H22.2987C22.4328 22.8623 22.5415 22.7535 22.5415 22.6195V20.3288C22.5415 20.1947 22.4328 20.0859 22.2987 20.0859Z" fill="white"/>
<path id="Vector_9" opacity="0.88" d="M19.2131 20.0859H16.921C16.7869 20.0859 16.6781 20.1947 16.6781 20.3288V22.6195C16.6781 22.7535 16.7869 22.8623 16.921 22.8623H19.2131C19.3474 22.8623 19.4561 22.7535 19.4561 22.6195V20.3288C19.4561 20.1947 19.3474 20.0859 19.2131 20.0859Z" fill="white"/>
<path id="Vector_10" opacity="0.56" d="M25.383 20.0859H23.0908C22.9567 20.0859 22.848 20.1947 22.848 20.3288V22.6195C22.848 22.7535 22.9567 22.8623 23.0908 22.8623H25.383C25.517 22.8623 25.6258 22.7535 25.6258 22.6195V20.3288C25.6258 20.1947 25.517 20.0859 25.383 20.0859Z" fill="white"/>
<path id="Vector_11" opacity="0.88" d="M22.2987 23.1685H20.0066C19.8724 23.1685 19.7636 23.2771 19.7636 23.4113V25.7019C19.7636 25.836 19.8724 25.9448 20.0066 25.9448H22.2987C22.4328 25.9448 22.5415 25.836 22.5415 25.7019V23.4113C22.5415 23.2771 22.4328 23.1685 22.2987 23.1685Z" fill="white"/>
<path id="Vector_12" opacity="0.96" d="M19.2131 23.1685H16.921C16.7869 23.1685 16.6781 23.2771 16.6781 23.4113V25.7019C16.6781 25.836 16.7869 25.9448 16.921 25.9448H19.2131C19.3474 25.9448 19.4561 25.836 19.4561 25.7019V23.4113C19.4561 23.2771 19.3474 23.1685 19.2131 23.1685Z" fill="white"/>
<path id="Vector_13" opacity="0.72" d="M25.383 23.1685H23.0908C22.9567 23.1685 22.848 23.2771 22.848 23.4113V25.7019C22.848 25.836 22.9567 25.9448 23.0908 25.9448H25.383C25.517 25.9448 25.6258 25.836 25.6258 25.7019V23.4113C25.6258 23.2771 25.517 23.1685 25.383 23.1685Z" fill="white"/>
<path id="Vector_14" d="M49.9041 9.42973H52.3523V23.466C52.3523 24.3637 52.1434 25.1978 51.7256 25.9686C51.3176 26.7484 50.7639 27.4238 50.0644 27.9952C49.3649 28.5754 48.5683 29.0243 47.6745 29.3416C46.7807 29.6681 45.8481 29.8313 44.8766 29.8313C43.8662 29.8313 42.8898 29.6183 41.9475 29.1921C41.0051 28.775 40.1793 28.2127 39.4701 27.5054C38.7707 26.8073 38.2655 26.023 37.9546 25.1525L40.1988 24.2005C40.3833 24.8261 40.7137 25.3883 41.1897 25.887C41.6754 26.3947 42.2389 26.7937 42.8801 27.0839C43.531 27.3831 44.1965 27.5326 44.8766 27.5326C45.5178 27.5326 46.1346 27.4284 46.7273 27.2199C47.3296 27.0114 47.8688 26.7212 48.3448 26.3494C48.8305 25.9867 49.2095 25.556 49.4815 25.0574C49.7632 24.5678 49.9041 24.0372 49.9041 23.466V20.7593C49.4086 21.5392 48.7528 22.1738 47.9367 22.6635C47.1305 23.1442 46.188 23.3844 45.1097 23.3844C44.08 23.3844 43.1133 23.1986 42.2098 22.8268C41.3063 22.455 40.5145 21.9427 39.8344 21.2898C39.1544 20.6279 38.6201 19.8662 38.2315 19.0049C37.8429 18.1435 37.6486 17.2186 37.6486 16.2302C37.6486 15.2419 37.8429 14.317 38.2315 13.4556C38.6201 12.5852 39.1544 11.8235 39.8344 11.1707C40.5145 10.5087 41.3063 9.99188 42.2098 9.62014C43.1133 9.24841 44.08 9.0625 45.1097 9.0625C46.188 9.0625 47.1305 9.30281 47.9367 9.78335C48.7528 10.2639 49.4086 10.8986 49.9041 11.6875V9.42973ZM45.1243 21.1675C46.0666 21.1675 46.8827 20.9408 47.5725 20.4874C48.2719 20.034 48.8111 19.431 49.1901 18.6784C49.5689 17.9259 49.7583 17.1098 49.7583 16.2302C49.7583 15.3235 49.564 14.4984 49.1754 13.7549C48.7966 13.0023 48.2574 12.4038 47.5579 11.9595C46.8681 11.5062 46.0569 11.2795 45.1243 11.2795C44.2111 11.2795 43.3756 11.5017 42.6178 11.946C41.86 12.3902 41.2577 12.9887 40.8108 13.7413C40.3736 14.4848 40.1551 15.3145 40.1551 16.2302C40.1551 17.146 40.3785 17.9803 40.8254 18.7328C41.282 19.4764 41.8844 20.0703 42.6323 20.5147C43.3901 20.9499 44.2208 21.1675 45.1243 21.1675Z" fill="#fff"/>
<path id="Vector_15" d="M54.6905 23.0307V9.42966H57.1387V11.1298C57.6536 10.4951 58.3045 9.99181 59.0915 9.62007C59.8783 9.23924 60.7332 9.04883 61.6562 9.04883C62.2197 9.04883 62.7637 9.11683 63.2883 9.25284L62.2974 11.5379C61.899 11.42 61.5104 11.361 61.1316 11.361C60.4029 11.361 59.7326 11.5288 59.1205 11.8642C58.5182 12.1907 58.0373 12.635 57.6779 13.1971C57.3183 13.7594 57.1387 14.385 57.1387 15.0742V23.0307H54.6905Z" fill="#fff"/>
<path id="Vector_16" d="M74.8896 9.42966H77.3378V23.0307H74.8896L74.7876 20.7322C74.331 21.5211 73.6995 22.1602 72.8932 22.6499C72.0965 23.1395 71.1445 23.3843 70.0369 23.3843C68.9683 23.3843 67.9676 23.1985 67.035 22.8267C66.1024 22.4458 65.2766 21.9245 64.5577 21.2626C63.8485 20.5916 63.2947 19.8208 62.8964 18.9504C62.4981 18.0799 62.299 17.1414 62.299 16.135C62.299 15.1648 62.4933 14.249 62.8819 13.3876C63.2705 12.5262 63.8096 11.7736 64.4994 11.1298C65.1989 10.4769 66.0052 9.96919 66.9184 9.60647C67.8316 9.23473 68.8129 9.04883 69.8621 9.04883C71.0084 9.04883 72.014 9.30274 72.8786 9.81049C73.7433 10.3092 74.4427 10.9576 74.9771 11.7555L74.8896 9.42966ZM69.9933 21.1674C70.9551 21.1674 71.7857 20.9497 72.4851 20.5145C73.1943 20.0703 73.7384 19.4718 74.1173 18.7192C74.5059 17.9666 74.7002 17.1369 74.7002 16.2302C74.7002 15.3053 74.5059 14.4711 74.1173 13.7276C73.7287 12.975 73.1798 12.3812 72.4706 11.9459C71.7711 11.5016 70.9453 11.2794 69.9933 11.2794C69.0315 11.2794 68.1571 11.5016 67.3702 11.9459C66.5833 12.3902 65.9566 12.9886 65.4903 13.7412C65.0337 14.4847 64.8054 15.3144 64.8054 16.2302C64.8054 17.146 65.0434 17.9802 65.5195 18.7328C65.9955 19.4763 66.627 20.0703 67.4139 20.5145C68.2008 20.9497 69.0606 21.1674 69.9933 21.1674Z" fill="#fff"/>
<path id="Vector_17" d="M88.6111 9.42969H91.2054L83.2345 29.8312H80.6402L83.278 23.0307L78.0466 9.42969H80.728L84.5021 19.8888L88.6111 9.42969Z" fill="#fff"/>
<path id="Vector_18" d="M103.588 9.42973H106.036V23.466C106.036 24.3637 105.827 25.1978 105.41 25.9686C105.002 26.7484 104.447 27.4238 103.748 27.9952C103.048 28.5754 102.252 29.0243 101.358 29.3416C100.464 29.6681 99.5316 29.8313 98.5601 29.8313C97.5497 29.8313 96.5736 29.6183 95.6316 29.1921C94.6889 28.775 93.8635 28.2127 93.1539 27.5054C92.4544 26.8073 91.9492 26.023 91.6383 25.1525L93.8829 24.2005C94.0671 24.8261 94.3974 25.3883 94.8738 25.887C95.3596 26.3947 95.9231 26.7937 96.5643 27.0839C97.2148 27.3831 97.8801 27.5326 98.5601 27.5326C99.2013 27.5326 99.8184 27.4284 100.411 27.2199C101.014 27.0114 101.552 26.7212 102.029 26.3494C102.515 25.9867 102.893 25.556 103.165 25.0574C103.447 24.5678 103.588 24.0372 103.588 23.466V20.7593C103.093 21.5392 102.437 22.1738 101.621 22.6635C100.814 23.1442 99.872 23.3844 98.7933 23.3844C97.7635 23.3844 96.7974 23.1986 95.8935 22.8268C94.9904 22.455 94.1985 21.9427 93.5184 21.2898C92.8384 20.6279 92.3036 19.8662 91.915 19.0049C91.5264 18.1435 91.3321 17.2186 91.3321 16.2302C91.3321 15.2419 91.5264 14.317 91.915 13.4556C92.3036 12.5852 92.8384 11.8235 93.5184 11.1707C94.1985 10.5087 94.9904 9.99188 95.8935 9.62014C96.7974 9.24841 97.7635 9.0625 98.7933 9.0625C99.872 9.0625 100.814 9.30281 101.621 9.78335C102.437 10.2639 103.093 10.8986 103.588 11.6875V9.42973ZM98.808 21.1675C99.7508 21.1675 100.567 20.9408 101.256 20.4874C101.956 20.034 102.495 19.431 102.874 18.6784C103.253 17.9259 103.442 17.1098 103.442 16.2302C103.442 15.3235 103.248 14.4984 102.86 13.7549C102.48 13.0023 101.941 12.4038 101.241 11.9595C100.552 11.5062 99.7407 11.2795 98.808 11.2795C97.8948 11.2795 97.0593 11.5017 96.3016 11.946C95.5438 12.3902 94.9415 12.9887 94.4946 13.7413C94.0578 14.4848 93.8386 15.3145 93.8386 16.2302C93.8386 17.146 94.0624 17.9803 94.5093 18.7328C94.9655 19.4764 95.5679 20.0703 96.3163 20.5147C97.0741 20.9499 97.9049 21.1675 98.808 21.1675Z" fill="#fff"/>
<path id="Vector_19" d="M108.374 23.0307V9.42966H110.822V11.1298C111.337 10.4951 111.988 9.99181 112.775 9.62007C113.562 9.23924 114.417 9.04883 115.34 9.04883C115.903 9.04883 116.447 9.11683 116.972 9.25284L115.981 11.5379C115.583 11.42 115.195 11.361 114.815 11.361C114.086 11.361 113.416 11.5288 112.804 11.8642C112.202 12.1907 111.721 12.635 111.362 13.1971C111.002 13.7594 110.822 14.385 110.822 15.0742V23.0307H108.374Z" fill="#fff"/>
<path id="Vector_20" d="M117.597 9.42967H120.045V23.0307H117.597V9.42967ZM118.851 7.21269C118.462 7.21269 118.136 7.09482 117.874 6.85907C117.612 6.62332 117.48 6.32863 117.48 5.975C117.48 5.62137 117.612 5.32669 117.874 5.09093C118.136 4.85518 118.456 4.7373 118.836 4.7373C119.215 4.7373 119.535 4.85518 119.798 5.09093C120.06 5.32669 120.19 5.62137 120.19 5.975C120.19 6.32863 120.06 6.62332 119.798 6.85907C119.545 7.09482 119.229 7.21269 118.851 7.21269Z" fill="#fff"/>
<path id="Vector_21" d="M133.912 2.62891H136.36V23.0305H133.912V20.7183C133.416 21.5162 132.75 22.16 131.915 22.6496C131.079 23.1393 130.098 23.3841 128.971 23.3841C127.913 23.3841 126.921 23.1983 125.998 22.8265C125.076 22.4547 124.26 21.9424 123.55 21.2895C122.851 20.6276 122.302 19.8659 121.904 19.0046C121.505 18.1432 121.306 17.2183 121.306 16.2299C121.306 15.2416 121.505 14.3167 121.904 13.4553C122.302 12.5849 122.851 11.8232 123.55 11.1704C124.26 10.5084 125.076 9.99157 125.998 9.61984C126.921 9.2481 127.913 9.0622 128.971 9.0622C130.098 9.0622 131.079 9.30701 131.915 9.79673C132.75 10.2864 133.416 10.9301 133.912 11.7281V2.62891ZM129.001 21.1672C129.962 21.1672 130.793 20.9496 131.492 20.5143C132.202 20.07 132.746 19.4716 133.125 18.719C133.513 17.9664 133.708 17.1367 133.708 16.2299C133.708 15.3051 133.513 14.4709 133.125 13.7274C132.736 12.9748 132.187 12.3809 131.478 11.9457C130.778 11.5014 129.952 11.2792 129.001 11.2792C128.039 11.2792 127.164 11.5014 126.377 11.9457C125.6 12.3899 124.978 12.9884 124.512 13.741C124.045 14.4845 123.812 15.3142 123.812 16.2299C123.812 17.1457 124.051 17.98 124.526 18.7325C125.003 19.4761 125.635 20.07 126.421 20.5143C127.208 20.9496 128.068 21.1672 129.001 21.1672Z" fill="#fff"/>
<path id="Vector_22" d="M143.134 23.2891C142.347 23.2619 141.58 23.126 140.831 22.8811C140.093 22.6273 139.443 22.2872 138.879 21.8611C138.326 21.4258 137.922 20.9271 137.669 20.365L139.767 19.5217C139.913 19.83 140.176 20.1201 140.555 20.3922C140.933 20.6642 141.372 20.8818 141.866 21.045C142.362 21.2082 142.862 21.2898 143.367 21.2898C143.901 21.2898 144.403 21.2128 144.869 21.0587C145.335 20.9045 145.713 20.6779 146.005 20.3786C146.307 20.0703 146.457 19.703 146.457 19.2769C146.457 18.8235 146.292 18.4699 145.961 18.216C145.641 17.9531 145.233 17.749 144.738 17.6039C144.251 17.4498 143.756 17.3046 143.251 17.1688C142.251 16.9329 141.357 16.6519 140.569 16.3255C139.782 15.99 139.16 15.5683 138.704 15.0606C138.257 14.5437 138.033 13.8864 138.033 13.0885C138.033 12.2452 138.281 11.5152 138.777 10.8986C139.282 10.2821 139.943 9.80604 140.759 9.4706C141.575 9.13501 142.449 8.96729 143.381 8.96729C144.558 8.96729 145.631 9.20301 146.603 9.67454C147.574 10.1461 148.298 10.7853 148.774 11.5924L146.806 12.6668C146.642 12.3403 146.388 12.0548 146.049 11.81C145.709 11.5561 145.32 11.3566 144.883 11.2115C144.445 11.0664 143.999 10.9893 143.542 10.9802C142.979 10.9621 142.449 11.0301 141.954 11.1843C141.468 11.3385 141.075 11.5742 140.774 11.8914C140.482 12.1998 140.336 12.5852 140.336 13.0476C140.336 13.5009 140.492 13.8456 140.803 14.0813C141.124 14.317 141.536 14.5074 142.041 14.6525C142.556 14.7885 143.115 14.9472 143.717 15.1286C144.601 15.3916 145.427 15.6953 146.194 16.0398C146.962 16.3844 147.578 16.8152 148.045 17.332C148.522 17.8488 148.755 18.488 148.744 19.2497C148.744 20.0838 148.477 20.8139 147.943 21.4395C147.409 22.0561 146.714 22.5274 145.859 22.8539C145.013 23.1804 144.106 23.3254 143.134 23.2891Z" fill="#fff"/>
</g>
</g>
</g>
</g>
<defs>
<linearGradient id="paint0_linear_1_234" x1="16.2755" y1="0.686035" x2="16.2755" y2="31.7741" gradientUnits="userSpaceOnUse">
<stop stop-color="#3558EA"/>
<stop offset="1" stop-color="#0000FF"/>
</linearGradient>
<linearGradient id="paint1_linear_1_234" x1="20.4113" y1="5.20195" x2="6.71844" y2="46.0011" gradientUnits="userSpaceOnUse">
<stop offset="0.215628" stop-color="#fff" stop-opacity="0"/>
<stop offset="0.447191" stop-color="#fff" stop-opacity="0.19"/>
<stop offset="0.619792" stop-color="#fff"/>
</linearGradient>
<clipPath id="clip0_1_234">
<rect width="150" height="31.0881" fill="white" transform="translate(0 0.686035)"/>
</clipPath>
</defs>
</svg>
