<svg width="150" height="25" viewBox="0 0 150 25" fill="none" xmlns="http://www.w3.org/2000/svg">
<g id="lineicons-2.svg" clip-path="url(#clip0_1_262)">
<g id="Clip path group">
<mask id="mask0_1_262" style="mask-type:luminance" maskUnits="userSpaceOnUse" x="0" y="0" width="150" height="25">
<g id="a">
<path id="Vector" d="M149.96 0.034668H0V24.4249H149.96V0.034668Z" fill="white"/>
</g>
</mask>
<g mask="url(#mask0_1_262)">
<g id="Group">
<path id="Vector_2" d="M35.7848 1.90869H32.2473V22.1036H44.2438V18.8454H35.7848V1.90869Z" fill="#fff"/>
<path id="Vector_3" d="M48.3027 5.71948C49.4074 5.71948 50.3197 4.80717 50.3197 3.67144C50.3197 2.53571 49.4074 1.66064 48.3027 1.66064C47.1421 1.66064 46.2298 2.54813 46.2298 3.67765C46.2298 4.80717 47.1483 5.71948 48.3027 5.71948ZM46.627 22.1038H49.9969V8.45019H46.627V22.1038Z" fill="#fff"/>
<path id="Vector_4" d="M56.8485 22.1038V14.7556C56.8485 12.5463 58.1146 11.1064 60.1937 11.1064C61.9378 11.1064 63.0671 12.2111 63.0671 14.5074V22.1099H66.4372V13.7006C66.4372 10.1631 64.6683 8.04053 61.2427 8.04053C59.3931 8.04053 57.736 8.84114 56.8795 10.2251L56.6003 8.45638H53.4785V22.1099H56.8485V22.1038Z" fill="#fff"/>
<path id="Vector_5" d="M75.8579 22.4635C79.4201 22.4635 81.9091 20.6699 82.486 17.6786H79.3646C78.9732 18.9756 77.7634 19.6955 75.9073 19.6955C73.6671 19.6955 72.4012 18.4791 72.1531 16.0773L82.4305 16.0463V15.0285C82.4305 10.7711 79.8299 8.03418 75.7402 8.03418C71.7372 8.03418 68.9445 10.9883 68.9445 15.2767C68.9445 19.5031 71.7927 22.4635 75.8579 22.4635ZM75.7713 10.8021C77.7878 10.8021 79.0854 12.0433 79.0854 13.9238H72.2335C72.5622 11.882 73.7787 10.8021 75.7713 10.8021Z" fill="#fff"/>
<path id="Vector_6" d="M86.8116 5.71948C87.9165 5.71948 88.8287 4.80717 88.8287 3.67144C88.8287 2.53571 87.9165 1.66064 86.8116 1.66064C85.6512 1.66064 84.7451 2.54813 84.7451 3.67765C84.7451 4.80717 85.6451 5.71948 86.8116 5.71948ZM85.1238 22.1038H88.4939V8.45019H85.1238V22.1038Z" fill="#fff"/>
<path id="Vector_7" d="M91.1811 15.2521C91.1811 19.5902 93.8872 22.4637 98.0329 22.4637C101.595 22.4637 104.251 20.2791 104.661 17.1016H101.26C100.9 18.5972 99.7146 19.4227 98.0262 19.4227C95.8732 19.4227 94.5445 17.8214 94.5445 15.2521C94.5445 12.6828 95.9848 11.0505 98.1384 11.0505C99.739 11.0505 100.875 11.8511 101.26 13.4027H104.63C104.27 10.1134 101.725 8.04053 98.0018 8.04053C93.9738 8.04053 91.1811 11.0257 91.1811 15.2521Z" fill="#fff"/>
<path id="Vector_8" d="M106.368 15.2522C106.368 19.5096 109.434 22.439 113.666 22.439C117.892 22.439 120.965 19.5159 120.965 15.2522C120.965 10.9948 117.899 8.06543 113.666 8.06543C109.44 8.07165 106.368 10.9948 106.368 15.2522ZM109.744 15.2522C109.744 12.7635 111.345 11.0816 113.666 11.0816C115.987 11.0816 117.588 12.7698 117.588 15.2522C117.588 17.7347 115.987 19.4227 113.666 19.4227C111.345 19.429 109.744 17.7409 109.744 15.2522Z" fill="#fff"/>
<path id="Vector_9" d="M126.997 22.1038V14.7556C126.997 12.5463 128.263 11.1064 130.342 11.1064C132.086 11.1064 133.215 12.2111 133.215 14.5074V22.1099H136.585V13.7006C136.585 10.1631 134.816 8.04053 131.391 8.04053C129.541 8.04053 127.884 8.84114 127.028 10.2251L126.749 8.45638H123.627V22.1099H126.997V22.1038Z" fill="#fff"/>
<path id="Vector_10" d="M149.96 17.9891C149.96 20.7508 147.614 22.4699 144.244 22.4699C140.843 22.4699 138.696 20.6391 138.689 17.9704H141.885C141.91 19.1558 142.798 19.9067 144.343 19.9067C145.913 19.9067 146.776 19.2675 146.776 18.2745C146.776 17.5794 146.422 17.0891 145.205 16.8099L142.742 16.2265C140.284 15.6741 139.099 14.5136 139.099 12.329C139.099 9.64797 141.358 8.04053 144.511 8.04053C147.577 8.04053 149.643 9.81553 149.674 12.4655H146.472C146.453 11.305 145.671 10.5603 144.374 10.5603C143.052 10.5603 142.276 11.1685 142.276 12.1863C142.276 12.9621 142.891 13.4524 144.045 13.7316L146.509 14.315C148.626 14.7928 149.786 15.7362 149.941 17.5298L149.96 17.9891Z" fill="#fff"/>
<path id="Vector_11" d="M19.2824 21.5405C20.1699 20.653 20.1699 19.2194 19.2824 18.3319L3.87254 2.92196C2.98506 2.03448 1.55143 2.03448 0.663948 2.92196C-0.223534 3.80944 -0.223534 5.24306 0.663948 6.13054L16.0739 21.5405C16.9613 22.428 18.395 22.428 19.2824 21.5405Z" fill="#6566FF"/>
<path id="Vector_12" d="M18.8728 10.1647C19.7602 9.27722 19.7602 7.84356 18.8728 6.95612L12.6169 0.700279C11.7295 -0.187202 10.2958 -0.187202 9.40835 0.700279C8.52091 1.58776 8.52091 3.02139 9.40835 3.90887L15.6642 10.1647C16.5516 11.0459 17.9853 11.0459 18.8728 10.1647Z" fill="#6566FF"/>
<path id="Vector_13" d="M10.5379 23.7624C11.4254 22.8749 11.4254 21.4413 10.5379 20.5538L4.28208 14.2979C3.3946 13.4105 1.96098 13.4105 1.0735 14.2979C0.186012 15.1854 0.186012 16.619 1.0735 17.5065L7.32932 23.7624C8.21682 24.6498 9.65042 24.6498 10.5379 23.7624Z" fill="#6566FF"/>
</g>
</g>
</g>
</g>
<defs>
<clipPath id="clip0_1_262">
<rect width="150" height="24.3902" fill="white" transform="translate(0 0.034668)"/>
</clipPath>
</defs>
</svg>
