<svg width="150" height="29" viewBox="0 0 150 29" fill="none" xmlns="http://www.w3.org/2000/svg">
<g id="plainadmin-2.svg" clip-path="url(#clip0_1_281)">
<g id="Clip path group">
<mask id="mask0_1_281" style="mask-type:luminance" maskUnits="userSpaceOnUse" x="0" y="0" width="150" height="29">
<g id="a">
<path id="Vector" d="M149.958 0.145508H0V28.3145H149.958V0.145508Z" fill="white"/>
</g>
</mask>
<g mask="url(#mask0_1_281)">
<g id="Group">
<path id="Vector_2" d="M40.4149 22.8888V6.44678H46.5503C47.6685 6.44678 48.6544 6.65276 49.5077 7.06473C50.3758 7.46202 51.0526 8.05054 51.5381 8.83033C52.0236 9.5954 52.2664 10.5297 52.2664 11.6331C52.2664 12.7219 52.0163 13.6562 51.516 14.436C51.0305 15.2012 50.361 15.7897 49.5077 16.2017C48.6544 16.6136 47.6685 16.8196 46.5503 16.8196H43.4164V22.8888H40.4149ZM43.4164 14.1712H46.5944C47.1389 14.1712 47.6097 14.0683 48.007 13.8622C48.4042 13.6415 48.7132 13.34 48.9339 12.9574C49.1546 12.5748 49.2649 12.1335 49.2649 11.6331C49.2649 11.1182 49.1546 10.6768 48.9339 10.309C48.7132 9.92645 48.4042 9.63216 48.007 9.42617C47.6097 9.20547 47.1389 9.09512 46.5944 9.09512H43.4164V14.1712Z" fill="#fff"/>
<path id="Vector_3" d="M54.0417 22.8885V6.18164H56.9329V22.8885H54.0417Z" fill="#fff"/>
<path id="Vector_4" d="M62.8023 23.1534C61.9636 23.1534 61.2354 23.0136 60.6174 22.7341C59.9994 22.4544 59.5212 22.0572 59.1829 21.5423C58.8444 21.0126 58.6752 20.402 58.6752 19.7105C58.6752 19.0483 58.8224 18.4599 59.1167 17.9449C59.411 17.4152 59.867 16.9737 60.485 16.6206C61.1029 16.2675 61.8828 16.0174 62.8244 15.8703L66.7529 15.2303V17.4373L63.3761 18.0111C62.8023 18.1141 62.3756 18.298 62.0961 18.5628C61.8165 18.8277 61.6768 19.1735 61.6768 19.6001C61.6768 20.0121 61.8313 20.3431 62.1402 20.5932C62.4639 20.8287 62.8612 20.9463 63.332 20.9463C63.9352 20.9463 64.4648 20.8213 64.921 20.5712C65.3919 20.3063 65.7524 19.9458 66.0025 19.4898C66.2673 19.0337 66.3997 18.5335 66.3997 17.989V14.8992C66.3997 14.3843 66.1937 13.9576 65.7818 13.6192C65.3845 13.2661 64.8548 13.0895 64.1927 13.0895C63.5747 13.0895 63.023 13.2587 62.5375 13.5971C62.0666 13.9208 61.7209 14.3548 61.5002 14.8992L59.1387 13.7515C59.3741 13.1189 59.742 12.5745 60.2422 12.1185C60.7572 11.6476 61.3604 11.2797 62.052 11.0149C62.7435 10.7501 63.4939 10.6177 64.3031 10.6177C65.2888 10.6177 66.157 10.8016 66.9073 11.1694C67.6577 11.5225 68.2389 12.0228 68.6509 12.6702C69.0775 13.3028 69.2909 14.0458 69.2909 14.8992V22.8885H66.5542V20.8361L67.1722 20.7919C66.8632 21.3068 66.4953 21.7408 66.0687 22.094C65.642 22.4324 65.1564 22.6973 64.612 22.8885C64.0677 23.0651 63.4644 23.1534 62.8023 23.1534Z" fill="#fff"/>
<path id="Vector_5" d="M71.5218 22.8888V10.8827H74.4127V22.8888H71.5218ZM72.9676 9.53647C72.169 9.53647 71.5218 8.88929 71.5218 8.0909C71.5218 7.29252 72.169 6.59961 72.9676 6.59961C73.7655 6.59961 74.4127 7.29252 74.4127 8.0909C74.4127 8.88929 73.7655 9.53647 72.9676 9.53647Z" fill="#fff"/>
<path id="Vector_6" d="M76.6408 22.8885V10.8825H79.3556V13.244L79.1345 12.8246C79.4141 12.1037 79.8704 11.5594 80.5028 11.1915C81.1507 10.8089 81.9007 10.6177 82.7542 10.6177C83.6373 10.6177 84.4169 10.8089 85.0937 11.1915C85.7852 11.574 86.3225 12.1111 86.7049 12.8026C87.0866 13.4794 87.2782 14.2665 87.2782 15.1641V22.8885H84.388V15.8482C84.388 15.3186 84.2838 14.8624 84.0789 14.4799C83.8725 14.0974 83.5859 13.8031 83.2176 13.5971C82.8648 13.3764 82.4451 13.2661 81.9599 13.2661C81.4887 13.2661 81.0697 13.3764 80.7021 13.5971C80.3338 13.8031 80.0472 14.0974 79.8408 14.4799C79.6352 14.8624 79.5317 15.3186 79.5317 15.8482V22.8885H76.6408Z" fill="#fff"/>
<path id="Vector_7" d="M88.1782 22.8888L94.0711 6.44678H96.631L102.523 22.8888H100.206L98.8599 19.0266H91.8415L90.4951 22.8888H88.1782ZM92.526 17.0404H98.1768L95.0423 8.01371H95.6606L92.526 17.0404Z" fill="#fff"/>
<path id="Vector_8" d="M108.225 23.1534C107.108 23.1534 106.099 22.8812 105.202 22.3369C104.319 21.7924 103.62 21.0495 103.105 20.1078C102.591 19.1661 102.333 18.1141 102.333 16.9518C102.333 15.76 102.591 14.7007 103.105 13.7737C103.62 12.8321 104.319 12.089 105.202 11.5446C106.099 11.0002 107.108 10.7281 108.225 10.7281C109.211 10.7281 110.087 10.9414 110.851 11.3681C111.618 11.78 112.22 12.3392 112.662 13.0454L112.33 13.553V6.18164H114.405V22.8885H112.397V20.3505L112.662 20.7036C112.249 21.4834 111.646 22.0867 110.851 22.5134C110.072 22.9401 109.196 23.1534 108.225 23.1534ZM108.402 21.1671C109.153 21.1671 109.822 20.9831 110.41 20.6154C110.999 20.2476 111.463 19.7473 111.801 19.1146C112.154 18.4673 112.33 17.7463 112.33 16.9518C112.33 16.1426 112.154 15.4216 111.801 14.7889C111.463 14.1415 110.999 13.634 110.41 13.2661C109.822 12.8983 109.153 12.7143 108.402 12.7143C107.666 12.7143 106.996 12.9056 106.394 13.2881C105.806 13.656 105.342 14.1562 105.004 14.7889C104.665 15.4069 104.496 16.1278 104.496 16.9518C104.496 17.7463 104.665 18.4673 105.004 19.1146C105.342 19.7473 105.806 20.2476 106.394 20.6154C106.982 20.9831 107.652 21.1671 108.402 21.1671Z" fill="#fff"/>
<path id="Vector_9" d="M116.479 22.8885V10.9928H118.487V13.4206L118.199 13.0454C118.494 12.295 118.965 11.7211 119.612 11.3239C120.26 10.9266 120.988 10.728 121.797 10.728C122.724 10.728 123.556 10.9856 124.292 11.5004C125.042 12.0154 125.556 12.6923 125.836 13.5308L125.263 13.553C125.572 12.6261 126.094 11.9271 126.83 11.4563C127.565 10.9708 128.382 10.728 129.279 10.728C130.103 10.728 130.846 10.9192 131.508 11.3018C132.185 11.6844 132.722 12.214 133.119 12.8908C133.516 13.5676 133.715 14.3327 133.715 15.1861V22.8885H131.64V15.8482C131.64 15.1861 131.523 14.627 131.287 14.1709C131.052 13.7148 130.728 13.3617 130.316 13.1115C129.919 12.8468 129.448 12.7143 128.904 12.7143C128.375 12.7143 127.896 12.8468 127.469 13.1115C127.057 13.3617 126.727 13.7222 126.476 14.193C126.241 14.6491 126.123 15.2008 126.123 15.8482V22.8885H124.049V15.8482C124.049 15.1861 123.93 14.627 123.695 14.1709C123.46 13.7148 123.136 13.3617 122.724 13.1115C122.327 12.8468 121.856 12.7143 121.311 12.7143C120.782 12.7143 120.304 12.8468 119.877 13.1115C119.466 13.3617 119.134 13.7222 118.884 14.193C118.649 14.6491 118.531 15.2008 118.531 15.8482V22.8885H116.479Z" fill="#fff"/>
<path id="Vector_10" d="M135.527 23.0563V11.1606H137.579V23.0563H135.527Z" fill="#fff"/>
<path id="Vector_11" d="M139.661 22.8885V10.9928H141.668V13.3102L141.338 13.1115C141.632 12.3612 142.103 11.78 142.751 11.368C143.413 10.9413 144.184 10.728 145.068 10.728C145.921 10.728 146.678 10.9192 147.34 11.3018C148.018 11.6844 148.548 12.214 148.93 12.8908C149.327 13.5676 149.526 14.3327 149.526 15.1861V22.8885H147.451V15.8482C147.451 15.1861 147.334 14.627 147.098 14.1709C146.863 13.7148 146.525 13.3617 146.083 13.1115C145.656 12.8468 145.163 12.7143 144.604 12.7143C144.045 12.7143 143.545 12.8468 143.103 13.1115C142.677 13.3617 142.338 13.7222 142.088 14.193C141.839 14.6491 141.713 15.2008 141.713 15.8482V22.8885H139.661Z" fill="#fff"/>
<path id="Vector_12" d="M136.492 9.70311C137.214 9.70311 137.799 9.11755 137.799 8.39523C137.799 7.67297 137.214 7.0874 136.492 7.0874C135.769 7.0874 135.184 7.67297 135.184 8.39523C135.184 9.11755 135.769 9.70311 136.492 9.70311Z" fill="#fff"/>
<path id="Vector_13" d="M0 12.3929C0 6.61943 0 3.73269 1.79358 1.93909C3.58718 0.145508 6.47392 0.145508 12.2474 0.145508H15.9216C21.6951 0.145508 24.5818 0.145508 26.3754 1.93909C28.169 3.73269 28.169 6.61943 28.169 12.3929V16.0671C28.169 21.8406 28.169 24.7273 26.3754 26.5209C24.5818 28.3145 21.6951 28.3145 15.9216 28.3145H12.2474C6.47392 28.3145 3.58718 28.3145 1.79358 26.5209C0 24.7273 0 21.8406 0 16.0671V12.3929Z" fill="url(#paint0_linear_1_281)"/>
<path id="Vector_14" d="M22.6542 11.7804C22.6542 15.1624 19.9125 17.9041 16.5304 17.9041C13.1485 17.9041 10.4068 15.1624 10.4068 11.7804C10.4068 8.3984 13.1485 5.65674 16.5304 5.65674C19.9125 5.65674 22.6542 8.3984 22.6542 11.7804Z" fill="url(#paint1_linear_1_281)"/>
<path id="Vector_15" d="M12.2435 19.7416C12.2435 21.4326 10.8727 22.8034 9.18168 22.8034C7.49069 22.8034 6.11984 21.4326 6.11984 19.7416C6.11984 18.0505 7.49069 16.6797 9.18168 16.6797C10.8727 16.6797 12.2435 18.0505 12.2435 19.7416Z" fill="url(#paint2_linear_1_281)"/>
</g>
</g>
</g>
</g>
<defs>
<linearGradient id="paint0_linear_1_281" x1="22.1049" y1="24.7934" x2="1.50954" y2="0.283422" gradientUnits="userSpaceOnUse">
<stop stop-color="#d2f"/>
<stop offset="1" stop-color="#d2D"/>
</linearGradient>
<linearGradient id="paint1_linear_1_281" x1="16.5304" y1="5.65674" x2="16.5304" y2="27.0897" gradientUnits="userSpaceOnUse">
<stop stop-color="white"/>
<stop offset="1" stop-color="white" stop-opacity="0"/>
</linearGradient>
<linearGradient id="paint2_linear_1_281" x1="9.18168" y1="6.88183" x2="9.18168" y2="22.8034" gradientUnits="userSpaceOnUse">
<stop stop-color="white" stop-opacity="0"/>
<stop offset="1" stop-color="white"/>
</linearGradient>
<clipPath id="clip0_1_281">
<rect width="150" height="28.169" fill="white" transform="translate(0 0.145508)"/>
</clipPath>
</defs>
</svg>
