<svg width="44" height="45" viewBox="0 0 44 45" fill="none" xmlns="http://www.w3.org/2000/svg">
<g id="SVG">
<path id="Vector" d="M22.9424 2.89976L39.0226 12.5467C39.1585 12.6281 39.271 12.7433 39.3492 12.8812C39.4273 13.019 39.4684 13.1748 39.4684 13.3332C39.4684 13.4917 39.4273 13.6474 39.3492 13.7853C39.271 13.9231 39.1585 14.0383 39.0226 14.1197L22.0001 24.3332L4.97756 14.1197C4.84161 14.0383 4.72908 13.9231 4.65094 13.7853C4.57281 13.6474 4.53174 13.4917 4.53174 13.3332C4.53174 13.1748 4.57281 13.019 4.65094 12.8812C4.72908 12.7433 4.84161 12.6281 4.97756 12.5467L21.0559 2.89976C21.341 2.72845 21.6674 2.63794 22.0001 2.63794C22.3327 2.63794 22.6591 2.72845 22.9442 2.89976H22.9424Z" fill="#4A6CF7"/>
<path id="Vector_2" opacity="0.5" d="M36.8189 19.7501L39.0226 21.0719C39.1585 21.1533 39.271 21.2685 39.3492 21.4064C39.4273 21.5442 39.4684 21.6999 39.4684 21.8584C39.4684 22.0168 39.4273 22.1726 39.3492 22.3104C39.271 22.4483 39.1585 22.5635 39.0226 22.6449L22.0001 32.8584L4.97756 22.6449C4.84161 22.5635 4.72908 22.4483 4.65094 22.3104C4.57281 22.1726 4.53174 22.0168 4.53174 21.8584C4.53174 21.6999 4.57281 21.5442 4.65094 21.4064C4.72908 21.2685 4.84161 21.1533 4.97756 21.0719L7.18123 19.7501L22.0001 28.6417L36.8189 19.7501ZM36.8189 28.3667L39.0226 29.6886C39.1585 29.7699 39.271 29.8852 39.3492 30.023C39.4273 30.1609 39.4684 30.3166 39.4684 30.4751C39.4684 30.6335 39.4273 30.7893 39.3492 30.9271C39.271 31.0649 39.1585 31.1802 39.0226 31.2616L22.9442 40.9086C22.6591 41.0799 22.3327 41.1704 22.0001 41.1704C21.6674 41.1704 21.341 41.0799 21.0559 40.9086L4.97756 31.2616C4.84161 31.1802 4.72908 31.0649 4.65094 30.9271C4.57281 30.7893 4.53174 30.6335 4.53174 30.4751C4.53174 30.3166 4.57281 30.1609 4.65094 30.023C4.72908 29.8852 4.84161 29.7699 4.97756 29.6886L7.18123 28.3667L22.0001 37.2584L36.8189 28.3667Z" fill="#4A6CF7"/>
</g>
</svg>
