<svg width="44" height="45" viewBox="0 0 44 45" fill="none" xmlns="http://www.w3.org/2000/svg">
<g id="SVG">
<path id="Vector" d="M36.6667 40.8334H7.33333C6.8471 40.8334 6.38079 40.6402 6.03697 40.2964C5.69315 39.9526 5.5 39.4863 5.5 39V15.1667H38.5V39C38.5 39.4863 38.3068 39.9526 37.963 40.2964C37.6192 40.6402 37.1529 40.8334 36.6667 40.8334ZM12.8333 20.6667V28H20.1667V20.6667H12.8333ZM12.8333 31.6667V35.3334H31.1667V31.6667H12.8333ZM23.8333 22.5V26.1667H31.1667V22.5H23.8333Z" fill="#4A6CF7"/>
<path id="Vector_2" opacity="0.5" d="M38.5 11.5H5.5V5.99996C5.5 5.51373 5.69315 5.04741 6.03697 4.7036C6.38079 4.35978 6.8471 4.16663 7.33333 4.16663H36.6667C37.1529 4.16663 37.6192 4.35978 37.963 4.7036C38.3068 5.04741 38.5 5.51373 38.5 5.99996V11.5Z" fill="#4A6CF7"/>
</g>
</svg>
