<svg width="44" height="45" viewBox="0 0 44 45" fill="none" xmlns="http://www.w3.org/2000/svg">
<g id="SVG">
<path id="Vector" d="M22 4.16663C32.1255 4.16663 40.3333 12.3745 40.3333 22.5C40.3333 32.6255 32.1255 40.8333 22 40.8333C11.8745 40.8333 3.66663 32.6255 3.66663 22.5C3.66663 12.3745 11.8745 4.16663 22 4.16663ZM22 7.83329C13.9003 7.83329 7.33329 14.4003 7.33329 22.5C7.33329 30.5996 13.9003 37.1666 22 37.1666C30.0996 37.1666 36.6666 30.5996 36.6666 22.5C36.6666 14.4003 30.0996 7.83329 22 7.83329ZM29.777 12.1288L32.3711 14.7211L25.5438 21.5521C25.6245 21.8546 25.6666 22.1718 25.6666 22.5C25.6666 24.5258 24.0258 26.1666 22 26.1666C19.9741 26.1666 18.3333 24.5258 18.3333 22.5C18.3333 20.4741 19.9741 18.8333 22 18.8333C22.3281 18.8333 22.6453 18.8755 22.9478 18.9561L29.7788 12.1288H29.777Z" fill="#4A6CF7"/>
<path id="Vector_2" opacity="0.5" d="M22 9.66663C23.8663 9.66663 25.6391 10.0645 27.2396 10.7813L24.3741 13.645C23.617 13.4433 22.8213 13.3333 22 13.3333C16.9381 13.3333 12.8333 17.4381 12.8333 22.5C12.8333 25.03 13.86 27.3216 15.5173 28.9826L12.925 31.575L12.639 31.2798C10.4866 28.9845 9.16663 25.8953 9.16663 22.5C9.16663 15.4123 14.9123 9.66663 22 9.66663ZM33.7186 17.2621C34.4336 18.8608 34.8333 20.6355 34.8333 22.5C34.8333 26.0438 33.396 29.2521 31.075 31.575L28.4826 28.9826C30.14 27.3216 31.1666 25.03 31.1666 22.5C31.1666 21.6786 31.0585 20.883 30.855 20.1258L33.7186 17.2621Z" fill="#4A6CF7"/>
</g>
</svg>
