<svg width="44" height="45" viewBox="0 0 44 45" fill="none" xmlns="http://www.w3.org/2000/svg">
<g id="SVG">
<path id="Vector" d="M25.6667 39H7.33333C6.8471 39 6.38079 38.8068 6.03697 38.463C5.69315 38.1192 5.5 37.6529 5.5 37.1667V18.8333H25.6667V39ZM38.5 15.1667H5.5V7.83333C5.5 7.3471 5.69315 6.88079 6.03697 6.53697C6.38079 6.19315 6.8471 6 7.33333 6H36.6667C37.1529 6 37.6192 6.19315 37.963 6.53697C38.3068 6.88079 38.5 7.3471 38.5 7.83333V15.1667Z" fill="#4A6CF7"/>
<path id="Vector_2" opacity="0.5" d="M29.3334 39V18.8334H38.5V37.1667C38.5 37.6529 38.3069 38.1193 37.9631 38.4631C37.6193 38.8069 37.1529 39 36.6667 39H29.3334Z" fill="#4A6CF7"/>
</g>
</svg>
