<svg width="44" height="45" viewBox="0 0 44 45" fill="none" xmlns="http://www.w3.org/2000/svg">
<g id="SVG">
<path id="Vector" opacity="0.5" d="M10.0154 8.62714C13.3421 5.74452 17.598 4.1605 21.9999 4.16664C32.1254 4.16664 40.3332 12.3745 40.3332 22.5C40.3332 26.416 39.1049 30.046 37.0149 33.0233L31.1665 22.5H36.6665C36.6668 19.6246 35.8218 16.8126 34.2368 14.4136C32.6517 12.0146 30.3964 10.1344 27.7514 9.00687C25.1063 7.87931 22.1882 7.5541 19.3598 8.07168C16.5314 8.58926 13.9175 9.92679 11.8432 11.918L10.0154 8.62714Z" fill="#4A6CF7"/>
<path id="Vector_2" d="M33.9843 36.3729C30.6576 39.2555 26.4017 40.8395 21.9998 40.8333C11.8743 40.8333 3.6665 32.6255 3.6665 22.5C3.6665 18.584 4.89484 14.954 6.98484 11.9767L12.8332 22.5H7.33317C7.33293 25.3754 8.17788 28.1874 9.76295 30.5864C11.348 32.9854 13.6033 34.8656 16.2483 35.9931C18.8934 37.1207 21.8115 37.4459 24.6399 36.9283C27.4683 36.4107 30.0822 35.0732 32.1565 33.082L33.9843 36.3729Z" fill="#4A6CF7"/>
</g>
</svg>
