<svg width="150" height="28" viewBox="0 0 150 28" fill="none" xmlns="http://www.w3.org/2000/svg">
<g id="tailadmin-2.svg" clip-path="url(#clip0_1_211)">
<g id="Clip path group">
<mask id="mask0_1_211" style="mask-type:luminance" maskUnits="userSpaceOnUse" x="0" y="0" width="150" height="28">
<g id="a">
<path id="Vector" d="M149.955 0.655273H0.63382V27.8046H149.955V0.655273Z" fill="white"/>
</g>
</mask>
<g mask="url(#mask0_1_211)">
<g id="Group">
<path id="Vector_2" d="M37.9641 8.44007H43.2899V23.6957H46.4754V8.44007H51.8012V5.50342H37.9641V8.44007Z" fill="#fff"/>
<path id="Vector_3" d="M55.3566 24.0193C57.2729 24.0193 58.9404 23.1483 59.463 21.879L59.687 23.6957H62.3498V16.2297C62.3498 12.8202 60.3091 11.0283 56.9992 11.0283C53.6643 11.0283 51.4743 12.7704 51.4743 15.4333H54.0625C54.0625 14.1392 55.058 13.3926 56.8499 13.3926C58.3928 13.3926 59.3883 14.0646 59.3883 15.7319V16.0057L55.705 16.2795C52.7933 16.5035 51.1507 17.922 51.1507 20.1867C51.1507 22.5011 52.7435 24.0193 55.3566 24.0193ZM56.3521 21.7297C54.9833 21.7297 54.2367 21.1822 54.2367 20.0623C54.2367 19.0668 54.9584 18.4446 56.8499 18.2704L59.4132 18.0713V18.7184C59.4132 20.6098 58.2186 21.7297 56.3521 21.7297Z" fill="#fff"/>
<path id="Vector_4" d="M66.8506 8.93813C67.8461 8.93813 68.6674 8.11686 68.6674 7.09652C68.6674 6.07616 67.8461 5.27979 66.8506 5.27979C65.8053 5.27979 64.9841 6.07616 64.9841 7.09652C64.9841 8.11686 65.8053 8.93813 66.8506 8.93813ZM65.3325 23.696H68.3688V11.402H65.3325V23.696Z" fill="#fff"/>
<path id="Vector_5" d="M74.567 23.696V5.18018H71.5554V23.696H74.567Z" fill="#fff"/>
<path id="Vector_6" d="M79.7674 23.6957L81.2355 19.4898H88.0303L89.4984 23.6957H92.8581L86.288 5.50342H83.0274L76.4572 23.6957H79.7674ZM84.2471 10.9288C84.4215 10.4311 84.5708 9.88353 84.6455 9.53513C84.695 9.90844 84.8695 10.4559 85.0188 10.9288L87.1093 16.8021H82.1817L84.2471 10.9288Z" fill="#fff"/>
<path id="Vector_7" d="M99.1839 24.0196C101.05 24.0196 102.644 23.1983 103.391 21.7798L103.589 23.696H106.377V5.18018H103.365V12.9698C102.594 11.7503 101.076 11.0286 99.3591 11.0286C95.6505 11.0286 93.4106 13.7662 93.4106 17.5988C93.4106 21.4065 95.626 24.0196 99.1839 24.0196ZM99.8559 21.2322C97.7409 21.2322 96.4473 19.6893 96.4473 17.4992C96.4473 15.3091 97.7409 13.7413 99.8559 13.7413C101.972 13.7413 103.34 15.2843 103.34 17.4992C103.34 19.7141 101.972 21.2322 99.8559 21.2322Z" fill="#fff"/>
<path id="Vector_8" d="M112.577 23.6957V16.7274C112.577 14.7365 113.746 13.7908 115.19 13.7908C116.633 13.7908 117.554 14.7116 117.554 16.4288V23.6957H120.59V16.7274C120.59 14.7116 121.71 13.7659 123.179 13.7659C124.622 13.7659 125.568 14.6867 125.568 16.4537V23.6957H128.579V15.6573C128.579 12.8202 126.937 11.0283 123.95 11.0283C122.084 11.0283 120.641 11.9492 120.018 13.3677C119.371 11.9492 118.076 11.0283 116.21 11.0283C114.444 11.0283 113.199 11.8247 112.577 12.8451L112.328 11.4016H109.541V23.6957H112.577Z" fill="#fff"/>
<path id="Vector_9" d="M133.077 8.93813C134.074 8.93813 134.895 8.11686 134.895 7.09652C134.895 6.07616 134.074 5.27979 133.077 5.27979C132.032 5.27979 131.211 6.07616 131.211 7.09652C131.211 8.11686 132.032 8.93813 133.077 8.93813ZM131.559 23.696H134.596V11.402H131.559V23.696Z" fill="#fff"/>
<path id="Vector_10" d="M140.769 23.6957V17.0759C140.769 15.0849 141.914 13.7908 143.78 13.7908C145.348 13.7908 146.369 14.7863 146.369 16.8518V23.6957H149.405V16.1302C149.405 12.9447 147.812 11.0283 144.726 11.0283C143.059 11.0283 141.565 11.7501 140.794 12.9944L140.545 11.4016H137.733V23.6957H140.769Z" fill="#fff"/>
<path id="Vector_11" d="M0.63382 7.79982C0.63382 3.854 3.83255 0.655273 7.77841 0.655273H20.6386C24.5844 0.655273 27.7831 3.854 27.7831 7.79982V20.66C27.7831 24.6059 24.5844 27.8046 20.6386 27.8046H7.77841C3.83255 27.8046 0.63382 24.6059 0.63382 20.66V7.79982Z" fill="#3C50E0"/>
<g id="Group_2" filter="url(#filter0_d_1_211)">
<path id="Vector_12" d="M7.77855 7.80001C7.77855 7.01085 8.41832 6.37109 9.20749 6.37109C9.99672 6.37109 10.6364 7.01085 10.6364 7.80001V20.6602C10.6364 21.4493 9.99672 22.0892 9.20749 22.0892C8.41832 22.0892 7.77855 21.4493 7.77855 20.6602V7.80001Z" fill="white"/>
</g>
<g id="Group_3" opacity="0.9" filter="url(#filter1_d_1_211)">
<path id="Vector_13" d="M13.1367 13.5153C13.1367 12.7261 13.7765 12.0864 14.5656 12.0864C15.3548 12.0864 15.9945 12.7261 15.9945 13.5153V20.6598C15.9945 21.449 15.3548 22.0888 14.5656 22.0888C13.7765 22.0888 13.1367 21.449 13.1367 20.6598V13.5153Z" fill="white"/>
</g>
<g id="Group_4" opacity="0.7" filter="url(#filter2_d_1_211)">
<path id="Vector_14" d="M18.495 9.94254C18.495 9.15338 19.1348 8.51367 19.9239 8.51367C20.7131 8.51367 21.3529 9.15338 21.3529 9.94254V20.6594C21.3529 21.4485 20.7131 22.0883 19.9239 22.0883C19.1348 22.0883 18.495 21.4485 18.495 20.6594V9.94254Z" fill="white"/>
</g>
</g>
</g>
</g>
</g>
<defs>
<filter id="filter0_d_1_211" x="7.09982" y="6.03173" width="4.21535" height="17.0757" filterUnits="userSpaceOnUse" color-interpolation-filters="sRGB">
<feFlood flood-opacity="0" result="BackgroundImageFix"/>
<feColorMatrix in="SourceAlpha" type="matrix" values="0 0 0 0 0 0 0 0 0 0 0 0 0 0 0 0 0 0 127 0" result="hardAlpha"/>
<feOffset dy="0.339367"/>
<feGaussianBlur stdDeviation="0.339367"/>
<feComposite in2="hardAlpha" operator="out"/>
<feColorMatrix type="matrix" values="0 0 0 0 0 0 0 0 0 0 0 0 0 0 0 0 0 0 0.12 0"/>
<feBlend mode="normal" in2="BackgroundImageFix" result="effect1_dropShadow_1_211"/>
<feBlend mode="normal" in="SourceGraphic" in2="effect1_dropShadow_1_211" result="shape"/>
</filter>
<filter id="filter1_d_1_211" x="12.4579" y="11.7471" width="4.21527" height="11.3599" filterUnits="userSpaceOnUse" color-interpolation-filters="sRGB">
<feFlood flood-opacity="0" result="BackgroundImageFix"/>
<feColorMatrix in="SourceAlpha" type="matrix" values="0 0 0 0 0 0 0 0 0 0 0 0 0 0 0 0 0 0 127 0" result="hardAlpha"/>
<feOffset dy="0.339367"/>
<feGaussianBlur stdDeviation="0.339367"/>
<feComposite in2="hardAlpha" operator="out"/>
<feColorMatrix type="matrix" values="0 0 0 0 0 0 0 0 0 0 0 0 0 0 0 0 0 0 0.12 0"/>
<feBlend mode="normal" in2="BackgroundImageFix" result="effect1_dropShadow_1_211"/>
<feBlend mode="normal" in="SourceGraphic" in2="effect1_dropShadow_1_211" result="shape"/>
</filter>
<filter id="filter2_d_1_211" x="17.8163" y="8.17431" width="4.21535" height="14.9322" filterUnits="userSpaceOnUse" color-interpolation-filters="sRGB">
<feFlood flood-opacity="0" result="BackgroundImageFix"/>
<feColorMatrix in="SourceAlpha" type="matrix" values="0 0 0 0 0 0 0 0 0 0 0 0 0 0 0 0 0 0 127 0" result="hardAlpha"/>
<feOffset dy="0.339367"/>
<feGaussianBlur stdDeviation="0.339367"/>
<feComposite in2="hardAlpha" operator="out"/>
<feColorMatrix type="matrix" values="0 0 0 0 0 0 0 0 0 0 0 0 0 0 0 0 0 0 0.12 0"/>
<feBlend mode="normal" in2="BackgroundImageFix" result="effect1_dropShadow_1_211"/>
<feBlend mode="normal" in="SourceGraphic" in2="effect1_dropShadow_1_211" result="shape"/>
</filter>
<clipPath id="clip0_1_211">
<rect width="150" height="27.1493" fill="white" transform="translate(0 0.655273)"/>
</clipPath>
</defs>
</svg>
