<svg width="150" height="36" viewBox="0 0 150 36" fill="none" xmlns="http://www.w3.org/2000/svg">
<g id="uideck-2.svg" clip-path="url(#clip0_1_200)">
<path id="Vector" d="M30.7888 13.6108V24.6389C30.7888 26.8797 29.6372 28.9616 27.7424 30.1529L18.8757 35.7294C18.6885 35.8485 18.4389 35.7124 18.4389 35.4911V31.5882C18.4389 30.9471 18.7566 30.3515 19.2898 29.9941L24.9457 26.2216C25.7342 25.6941 26.2108 24.8091 26.2108 23.8617V16.26C26.2108 15.653 26.5341 15.0914 27.0617 14.7851L29.9379 13.1286C30.318 12.913 30.7888 13.1854 30.7888 13.6221V13.6108Z" fill="#625DF5"/>
<path id="Vector_2" d="M30.1024 10.3101L17.5767 17.5431C16.6974 18.0479 16.1584 18.9839 16.1584 19.9994V35.2367C16.1584 35.458 15.9202 35.5941 15.733 35.4807L4.12623 28.73C2.07832 27.5387 0.818939 25.3545 0.818939 22.9833V13.7592C0.818939 10.9795 2.29956 8.40967 4.71054 7.01982L15.2734 0.915787C15.801 0.609451 16.4477 0.609451 16.9753 0.915787L19.6189 2.44179C20.1861 2.77082 20.1861 3.58772 19.6189 3.91675L7.00806 11.1951C6.12876 11.7 5.58984 12.6359 5.58984 13.6514V22.4217C5.58984 23.4372 6.12876 24.3731 7.00806 24.8781L11.1889 27.289C11.2797 27.3401 11.3875 27.2777 11.3875 27.1756V18.462C11.3875 16.6921 12.3292 15.0639 13.8609 14.179L25.9782 7.18433C26.5454 6.8553 27.2489 6.88367 27.7878 7.2524L30.1534 8.86918C30.6696 9.2209 30.6413 9.99244 30.0967 10.3101H30.1024Z" fill="#625DF5"/>
<path id="Vector_3" d="M44.4315 8.73486H48.4767V19.7221C48.4767 20.6239 48.6 21.4278 48.8467 22.1339C49.0935 22.8315 49.4593 23.4228 49.9442 23.9077C50.4376 24.3926 51.0459 24.7626 51.769 25.0179C52.4921 25.2646 53.3344 25.388 54.2957 25.388C55.2485 25.388 56.0865 25.2646 56.8096 25.0179C57.5412 24.7626 58.1496 24.3926 58.6345 23.9077C59.1279 23.4228 59.4979 22.8315 59.7446 22.1339C59.9913 21.4278 60.1147 20.6239 60.1147 19.7221V8.73486H64.1599V20.207C64.1599 21.5171 63.9388 22.7082 63.4964 23.7801C63.0539 24.852 62.4117 25.7708 61.5695 26.5365C60.7272 27.3021 59.6936 27.8933 58.4685 28.3103C57.252 28.7271 55.861 28.9355 54.2957 28.9355C52.7303 28.9355 51.3352 28.7271 50.1101 28.3103C48.8935 27.8933 47.8641 27.3021 47.0219 26.5365C46.1797 25.7708 45.5374 24.852 45.095 23.7801C44.6526 22.7082 44.4315 21.5171 44.4315 20.207V8.73486Z" fill="#fff"/>
<path id="Vector_4" d="M66.9546 8.73486H71.0254V28.6803H66.9546V8.73486Z" fill="#fff"/>
<path id="Vector_5" d="M72.9268 21.215C72.9268 20.0156 73.1522 18.9351 73.6031 17.9738C74.054 17.004 74.675 16.1787 75.4661 15.4981C76.2659 14.8091 77.2102 14.2816 78.2991 13.9157C79.3966 13.5414 80.5833 13.3543 81.8595 13.3543C82.404 13.3543 82.9398 13.3883 83.4673 13.4564C84.0033 13.5244 84.5137 13.618 84.9986 13.7371C85.4921 13.8563 85.9515 14.0008 86.3768 14.171C86.8107 14.3327 87.1935 14.5113 87.5254 14.707V7.50977H91.3026V28.6802H87.5254V27.2638C87.1935 27.4935 86.8022 27.7104 86.3513 27.9146C85.9004 28.1187 85.4155 28.2974 84.8966 28.4506C84.3776 28.6037 83.8374 28.7228 83.2759 28.8078C82.7229 28.9014 82.1742 28.9482 81.6297 28.9482C80.3536 28.9482 79.1797 28.7611 78.1077 28.3867C77.0443 28.0124 76.1297 27.4849 75.3641 26.8044C74.5984 26.1238 73.9987 25.3114 73.5648 24.3671C73.1394 23.4142 72.9268 22.3635 72.9268 21.215ZM76.8954 21.215C76.8954 21.8191 77.0145 22.3891 77.2527 22.925C77.4995 23.461 77.8483 23.9332 78.2991 24.3415C78.7585 24.7414 79.3073 25.0604 79.9453 25.2985C80.5919 25.5283 81.315 25.6431 82.1147 25.6431C82.6251 25.6431 83.1355 25.5964 83.646 25.5028C84.1564 25.4007 84.6456 25.2603 85.1135 25.0816C85.5899 24.903 86.0323 24.6861 86.4406 24.4308C86.8575 24.1756 87.219 23.8907 87.5254 23.5758V18.3566C87.1425 18.0503 86.7384 17.7908 86.313 17.5782C85.8876 17.3655 85.4538 17.1911 85.0114 17.0549C84.569 16.9189 84.1224 16.821 83.6715 16.7614C83.2206 16.6935 82.7825 16.6594 82.3571 16.6594C81.4894 16.6594 80.7152 16.7785 80.0347 17.0167C79.3626 17.2464 78.7926 17.5654 78.3247 17.9738C77.8653 18.3821 77.5122 18.8628 77.2654 19.4157C77.0188 19.9687 76.8954 20.5685 76.8954 21.215Z" fill="#fff"/>
<path id="Vector_6" d="M93.5869 21.0999C93.5869 20.079 93.7956 19.1049 94.2123 18.1776C94.629 17.2418 95.229 16.4166 96.0114 15.702C96.7939 14.9873 97.7509 14.4174 98.8825 13.992C100.023 13.5666 101.316 13.354 102.762 13.354C104.2 13.354 105.493 13.5709 106.641 14.0048C107.798 14.4301 108.776 15.0172 109.576 15.7658C110.384 16.5144 111.001 17.395 111.426 18.4073C111.861 19.4197 112.077 20.5044 112.077 21.6614C112.077 21.806 112.073 21.9634 112.065 22.1336C112.065 22.2951 112.056 22.444 112.039 22.5801H97.7983C97.9597 23.031 98.2193 23.4437 98.5763 23.818C98.9421 24.1923 99.3974 24.5156 99.9421 24.7878C100.486 25.0601 101.116 25.2727 101.831 25.4258C102.545 25.5705 103.336 25.6428 104.204 25.6428C105.072 25.6428 105.935 25.5535 106.795 25.3748C107.654 25.1877 108.475 24.9537 109.257 24.673L110.533 27.557C110.04 27.7866 109.538 27.9908 109.027 28.1694C108.525 28.3396 107.998 28.4843 107.446 28.6034C106.901 28.7139 106.326 28.799 105.723 28.8586C105.127 28.9181 104.497 28.9479 103.834 28.9479C102.141 28.9479 100.656 28.7437 99.3807 28.3354C98.1044 27.927 97.0368 27.3698 96.1772 26.6637C95.3184 25.9576 94.6711 25.1281 94.2377 24.1753C93.8035 23.2224 93.5869 22.1973 93.5869 21.0999ZM108.07 19.6323C107.934 19.2155 107.722 18.8284 107.432 18.4711C107.152 18.1053 106.798 17.7905 106.374 17.5268C105.948 17.2546 105.454 17.0419 104.893 16.8887C104.332 16.7357 103.715 16.6591 103.043 16.6591C102.328 16.6591 101.677 16.7399 101.09 16.9015C100.504 17.0631 99.9886 17.2801 99.5465 17.5523C99.1035 17.8245 98.7333 18.1394 98.436 18.4966C98.1465 18.8539 97.9342 19.2325 97.7983 19.6323H108.07Z" fill="#fff"/>
<path id="Vector_7" d="M113.609 21.1892C113.609 20.0833 113.809 19.0539 114.209 18.101C114.617 17.1397 115.208 16.3102 115.982 15.6127C116.765 14.9065 117.718 14.3536 118.841 13.9537C119.972 13.5539 121.261 13.354 122.707 13.354C123.337 13.354 123.971 13.3922 124.609 13.4688C125.246 13.5454 125.86 13.6559 126.446 13.8006C127.042 13.9367 127.599 14.1026 128.118 14.2983C128.637 14.4854 129.088 14.6938 129.471 14.9236L127.723 17.7693C126.897 17.3865 126.115 17.1057 125.375 16.9271C124.643 16.7484 123.898 16.6591 123.141 16.6591C122.274 16.6591 121.495 16.7739 120.806 17.0037C120.117 17.2248 119.53 17.5395 119.045 17.948C118.568 18.3478 118.203 18.8242 117.947 19.3772C117.701 19.9216 117.577 20.5172 117.577 21.1637C117.577 21.8102 117.71 22.4101 117.973 22.963C118.246 23.5074 118.624 23.9796 119.109 24.3794C119.602 24.7708 120.194 25.0813 120.882 25.311C121.58 25.5322 122.354 25.6428 123.205 25.6428C124.141 25.6428 125.021 25.5109 125.846 25.2472C126.681 24.9835 127.454 24.6304 128.169 24.188L129.918 27.0337C129.467 27.306 128.977 27.5612 128.45 27.7994C127.922 28.0291 127.357 28.229 126.753 28.3992C126.157 28.5694 125.527 28.7012 124.864 28.7948C124.209 28.8968 123.528 28.9479 122.822 28.9479C121.384 28.9479 120.096 28.7522 118.955 28.3608C117.816 27.9695 116.85 27.4294 116.059 26.7402C115.268 26.0426 114.66 25.2217 114.234 24.2773C113.818 23.333 113.609 22.3037 113.609 21.1892Z" fill="#fff"/>
<path id="Vector_8" d="M132.368 7.50977H136.145V20.0156L143.189 13.6223H148.969L141.096 20.6664L149.468 28.6802H143.801L138.199 23.2568L136.145 25.0944V28.6802H132.368V7.50977Z" fill="#fff"/>
</g>
<defs>
<clipPath id="clip0_1_200">
<rect width="150" height="35.0877" fill="white" transform="translate(0 0.686035)"/>
</clipPath>
</defs>
</svg>
